<svg xmlns="http://www.w3.org/2000/svg" xmlns:xlink="http://www.w3.org/1999/xlink">
  <symbol viewBox="0 0 14 26" id="icon-arrow-right" xmlns="http://www.w3.org/2000/svg">
    <path d="m1 25 12-12L1 1" />
  </symbol>
  <symbol viewBox="0 0 46 38" id="icon-car" xmlns="http://www.w3.org/2000/svg">
    <path
      d="M31 1H1v26h30V1Zm0 10h8l6 6v10H31V11ZM10 37a5 5 0 1 0 0-10 5 5 0 0 0 0 10Zm26 0a5 5 0 1 0 0-10 5 5 0 0 0 0 10Z" />
  </symbol>
  <symbol viewBox="0 0 31 29" id="icon-check" xmlns="http://www.w3.org/2000/svg">
    <path d="m10 13 4.5 4.5 15-15" />
    <path d="M28 14.5V25a3 3 0 0 1-3 3H4a3 3 0 0 1-3-3V4a3 3 0 0 1 3-3h16.5" />
  </symbol>
  <symbol viewBox="0 0 32 32" id="icon-close" xmlns="http://www.w3.org/2000/svg">
    <path
      d="m7 7 18 18M7 25 25 7"
      style="fill: none; stroke: #000; stroke-linecap: round; stroke-linejoin: round; stroke-width: 2px" />
  </symbol>
  <symbol viewBox="0 0 16 30" id="icon-facebook" xmlns="http://www.w3.org/2000/svg">
    <path
      d="M16 0h-4.364C9.708 0 7.858.79 6.494 2.197A7.62 7.62 0 0 0 4.364 7.5V12H0v6h4.364v12h5.818V18h4.364L16 12h-5.818V7.5c0-.398.153-.78.426-1.06A1.43 1.43 0 0 1 11.636 6H16V0Z" />
  </symbol>
  <symbol viewBox="0 0 11 20" id="icon-facebook-footer" xmlns="http://www.w3.org/2000/svg">
    <path d="M11 0H8a5 5 0 0 0-5 5v3H0v4h3v8h4v-8h3l1-4H7V5a1 1 0 0 1 1-1h3V0Z" />
  </symbol>
  <symbol viewBox="0 0 32 32" id="icon-instageam" xmlns="http://www.w3.org/2000/svg">
    <path
      d="M23.5 1h-15A7.5 7.5 0 0 0 1 8.5v15A7.5 7.5 0 0 0 8.5 31h15a7.5 7.5 0 0 0 7.5-7.5v-15A7.5 7.5 0 0 0 23.5 1Z" />
    <path d="M22 15.055a6 6 0 1 1-11.871 1.76 6 6 0 0 1 11.87-1.76Zm2.25-7.305h.015" />
    <path d="M24.25 7.75H24.265"  stroke-linecap="round"/>
  </symbol>
  <symbol viewBox="0 0 22 21" id="icon-ln" xmlns="http://www.w3.org/2000/svg">
    <path
      d="M15 7a6 6 0 0 1 6 6v7h-4v-7a2 2 0 0 0-4 0v7H9v-7a6 6 0 0 1 6-6ZM5 8H1v12h4V8ZM3 5a2 2 0 1 0 0-4 2 2 0 0 0 0 4Z" />
  </symbol>
  <symbol viewBox="0 0 14 12" id="icon-mail" xmlns="http://www.w3.org/2000/svg">
    <path
      d="M11.9 0H2.1A2.1 2.1 0 0 0 0 2.1v7a2.1 2.1 0 0 0 2.1 2.1h9.8A2.1 2.1 0 0 0 14 9.1v-7A2.1 2.1 0 0 0 11.9 0ZM2.1 1.4h9.8a.7.7 0 0 1 .7.7L7 5.516 1.4 2.1a.7.7 0 0 1 .7-.7Zm10.5 7.7a.7.7 0 0 1-.7.7H2.1a.7.7 0 0 1-.7-.7V3.696l5.236 3.199a.7.7 0 0 0 .7 0L12.6 3.696V9.1Z" />
  </symbol>
  <symbol viewBox="0 0 14 14" id="icon-phone" xmlns="http://www.w3.org/2000/svg">
    <path
      d="M12.265 7.7c-.155 0-.316-.05-.47-.084a6.63 6.63 0 0 1-.921-.274 1.405 1.405 0 0 0-1.742.702l-.155.316a8.557 8.557 0 0 1-1.869-1.405 8.556 8.556 0 0 1-1.405-1.869l.295-.196a1.405 1.405 0 0 0 .703-1.742 7.258 7.258 0 0 1-.274-.92 5.21 5.21 0 0 1-.085-.479A2.108 2.108 0 0 0 4.235 0H2.127A2.108 2.108 0 0 0 .02 2.396a13.348 13.348 0 0 0 11.606 11.563h.266a2.108 2.108 0 0 0 1.926-1.248c.122-.273.183-.568.182-.866V9.737A2.107 2.107 0 0 0 12.265 7.7Zm.351 4.215a.702.702 0 0 1-.508.676c-.1.03-.204.04-.307.027A11.943 11.943 0 0 1 1.467 2.233a.766.766 0 0 1 .176-.576.703.703 0 0 1 .527-.239h2.107a.702.702 0 0 1 .703.555 7.813 7.813 0 0 0 .429 1.658l-.984.457a.702.702 0 0 0-.345.934A10.18 10.18 0 0 0 8.998 9.94c.171.07.363.07.534 0a.703.703 0 0 0 .4-.365l.436-.984c.363.13.734.238 1.11.323.187.042.377.078.569.106a.703.703 0 0 1 .555.702l.014 2.192Z" />
  </symbol>
  <symbol viewBox="0 0 14 14" id="icon-phone-footer" xmlns="http://www.w3.org/2000/svg">
    <path
      d="M12.265 7.7c-.155 0-.316-.05-.47-.084a6.63 6.63 0 0 1-.921-.274 1.405 1.405 0 0 0-1.742.702l-.155.316a8.557 8.557 0 0 1-1.869-1.405 8.556 8.556 0 0 1-1.405-1.869l.295-.196a1.405 1.405 0 0 0 .703-1.742 7.258 7.258 0 0 1-.274-.92 5.21 5.21 0 0 1-.085-.479A2.108 2.108 0 0 0 4.235 0H2.127A2.108 2.108 0 0 0 .02 2.396a13.348 13.348 0 0 0 11.606 11.563h.266a2.108 2.108 0 0 0 1.926-1.248c.122-.273.183-.568.182-.866V9.737A2.107 2.107 0 0 0 12.265 7.7Zm.351 4.215a.702.702 0 0 1-.508.676c-.1.03-.204.04-.307.027A11.943 11.943 0 0 1 1.467 2.233a.766.766 0 0 1 .176-.576.703.703 0 0 1 .527-.239h2.107a.702.702 0 0 1 .703.555 7.813 7.813 0 0 0 .429 1.658l-.984.457a.702.702 0 0 0-.345.934A10.18 10.18 0 0 0 8.998 9.94c.171.07.363.07.534 0a.703.703 0 0 0 .4-.365l.436-.984c.363.13.734.238 1.11.323.187.042.377.078.569.106a.703.703 0 0 1 .555.702l.014 2.192Z" />
  </symbol>
  <symbol viewBox="0 0 36 36" id="icon-quality" xmlns="http://www.w3.org/2000/svg">
    <path
      d="M18.006 0C10.815 0 4.96 5.164 4.96 11.507c0 2.937 1.291 5.594 3.352 7.632L0 30.686h8.221L11.981 36l6.025-9.37L24.03 36l3.76-5.314H36l-8.3-11.547c2.06-2.038 3.351-4.695 3.351-7.632C31.051 5.164 25.197 0 18.006 0Zm0 2.557c5.616 0 10.146 3.996 10.146 8.95 0 2.058-.815 3.926-2.129 5.434L24.8 18.02c-1.302 1.149-3.057 1.948-4.915 2.277-.611.1-1.234.16-1.88.16-.645 0-1.268-.06-1.88-.16-1.856-.33-3.612-1.128-4.914-2.277l-1.223-1.079c-1.314-1.508-2.129-3.376-2.129-5.434 0-4.954 4.53-8.95 10.147-8.95Zm-1.45 2.557c0 1.409-1.042 2.557-2.899 2.557v2.558a6.31 6.31 0 0 0 2.9-.7V17.9h2.898V5.114h-2.899Zm-6.07 15.763c1.891 1.178 4.134 1.898 6.568 2.058l-5.197 8.07L9.83 28.13H5.277l5.21-7.252Zm15.039 0 5.21 7.252h-4.542l-2.038 2.877-5.198-8.072c2.435-.16 4.677-.879 6.568-2.057Z" />
  </symbol>
  <symbol viewBox="0 0 32 32" id="icon-search" xmlns="http://www.w3.org/2000/svg">
    <path
      d="M14.333 27.667c7.364 0 13.334-5.97 13.334-13.334C27.667 6.97 21.697 1 14.333 1 6.97 1 1 6.97 1 14.333c0 7.364 5.97 13.334 13.333 13.334ZM31 31l-7.25-7.25" />
  </symbol>
  <symbol viewBox="0 0 56 56" id="icon-social" xmlns="http://www.w3.org/2000/svg">
    <path d="M21 21h-4.667v4.667H21V21Zm4.667 0h4.666v4.667h-4.666V21Zm14 0H35v4.667h4.667V21Z" />
    <path
      d="M7 11.667V49l11.2-8.4a4.64 4.64 0 0 1 2.8-.933h23.333A4.667 4.667 0 0 0 49 35V11.667A4.667 4.667 0 0 0 44.333 7H11.667A4.667 4.667 0 0 0 7 11.667Zm4.667 28v-28h32.666V35H19.446a4.63 4.63 0 0 0-2.8.933l-4.98 3.734Z" />
  </symbol>
  <symbol viewBox="0 0 20 20" id="icon-star" xmlns="http://www.w3.org/2000/svg">
    <path d="m10 0 3.09 6.26L20 7.27l-5 4.87 1.18 6.88L10 15.77l-6.18 3.25L5 12.14 0 7.27l6.91-1.01L10 0Z" />
  </symbol>
  <symbol viewBox="0 0 700 700" id="icon-swip" xmlns="http://www.w3.org/2000/svg">
    <defs>
      <symbol id="qa" overflow="visible">
        <path
          d="M28.422-1.703c-1.469.762-3 1.336-4.594 1.719a21.023 21.023 0 0 1-4.953.578C13.72.594 9.633-.844 6.625-3.72 3.613-6.594 2.11-10.499 2.11-15.438s1.503-8.843 4.515-11.719c3.008-2.882 7.094-4.328 12.25-4.328 1.719 0 3.367.196 4.953.578 1.594.387 3.125.961 4.594 1.72v6.405c-1.48-1.007-2.937-1.75-4.375-2.218s-2.95-.704-4.531-.704c-2.844 0-5.086.914-6.719 2.735-1.625 1.824-2.437 4.336-2.437 7.531 0 3.2.812 5.71 2.437 7.531 1.633 1.824 3.875 2.735 6.719 2.735a14.53 14.53 0 0 0 4.531-.704c1.438-.476 2.895-1.218 4.375-2.218z" />
      </symbol>
      <symbol id="qb" overflow="visible">
        <path
          d="M20.797-16.875a8.533 8.533 0 0 0-1.938-.672 8.877 8.877 0 0 0-1.937-.219c-1.906 0-3.375.61-4.406 1.828-1.024 1.22-1.531 2.97-1.531 5.25V0H3.563v-23.203h7.422v3.813c.945-1.52 2.035-2.629 3.265-3.328 1.238-.695 2.723-1.047 4.453-1.047.25 0 .52.012.813.031.289.024.71.07 1.265.14z" />
      </symbol>
      <symbol id="qc" overflow="visible">
        <path
          d="M26.719-11.656v2.11H9.391c.176 1.742.8 3.046 1.875 3.921 1.082.867 2.586 1.297 4.516 1.297 1.562 0 3.16-.226 4.797-.687 1.632-.47 3.316-1.172 5.046-2.11v5.72A31.817 31.817 0 0 1 20.36.077a27.26 27.26 0 0 1-5.266.516c-4.199 0-7.46-1.062-9.781-3.187-2.324-2.133-3.484-5.13-3.484-8.985 0-3.781 1.14-6.754 3.422-8.922 2.28-2.175 5.425-3.265 9.437-3.265 3.645 0 6.563 1.101 8.75 3.297 2.188 2.199 3.281 5.136 3.281 8.812zm-7.625-2.469c0-1.406-.414-2.539-1.234-3.406-.813-.863-1.887-1.297-3.22-1.297-1.437 0-2.605.406-3.5 1.219-.898.805-1.452 1.965-1.671 3.484z" />
      </symbol>
      <symbol id="qd" overflow="visible">
        <path
          d="M13.969-10.438c-1.555 0-2.719.266-3.5.797-.781.523-1.172 1.293-1.172 2.312 0 .938.313 1.672.938 2.203.632.532 1.507.797 2.625.797 1.394 0 2.566-.5 3.515-1.5.957-1 1.438-2.254 1.438-3.765v-.844zm11.328-2.797V0h-7.484v-3.437c-.993 1.406-2.11 2.433-3.36 3.078-1.242.633-2.75.953-4.531.953-2.406 0-4.36-.695-5.86-2.094C2.57-2.907 1.829-4.724 1.829-6.954c0-2.727.93-4.727 2.797-6 1.875-1.27 4.813-1.906 8.813-1.906h4.375v-.578c0-1.164-.465-2.02-1.391-2.563-.93-.55-2.371-.828-4.328-.828-1.586 0-3.063.164-4.438.484-1.367.313-2.632.79-3.797 1.422v-5.656a42.648 42.648 0 0 1 4.782-.875 37.414 37.414 0 0 1 4.797-.312c4.187 0 7.207.828 9.062 2.484 1.863 1.648 2.797 4.328 2.797 8.047z" />
      </symbol>
      <symbol id="qe" overflow="visible">
        <path
          d="M11.656-29.781v6.578h7.656v5.313h-7.656v9.828c0 1.086.21 1.82.64 2.203.438.375 1.29.562 2.563.562h3.797V0h-6.36c-2.93 0-5-.61-6.218-1.828C4.859-3.055 4.25-5.133 4.25-8.062v-9.828H.562v-5.313H4.25v-6.578z" />
      </symbol>
      <symbol id="qf" overflow="visible">
        <path
          d="M19.344-19.797v-12.438h7.453V-.001h-7.453v-3.36c-1.023 1.368-2.148 2.368-3.375 3-1.23.633-2.652.954-4.266.954C8.848.593 6.5-.54 4.657-2.813c-1.836-2.27-2.75-5.192-2.75-8.766 0-3.57.914-6.492 2.75-8.766 1.843-2.28 4.19-3.422 7.046-3.422 1.602 0 3.02.325 4.25.97 1.239.648 2.368 1.648 3.391 3zm-4.89 15.016c1.593 0 2.804-.578 3.64-1.734.832-1.165 1.25-2.852 1.25-5.063 0-2.207-.418-3.89-1.25-5.047-.836-1.164-2.047-1.75-3.64-1.75-1.575 0-2.778.586-3.61 1.75-.836 1.156-1.25 2.84-1.25 5.047 0 2.211.414 3.898 1.25 5.063.832 1.156 2.035 1.734 3.61 1.734z" />
      </symbol>
      <symbol id="qg" overflow="visible">
        <path
          d="M15.906-4.781c1.594 0 2.805-.578 3.64-1.735.833-1.164 1.25-2.851 1.25-5.062 0-2.207-.417-3.89-1.25-5.047-.835-1.164-2.046-1.75-3.64-1.75-1.586 0-2.805.586-3.656 1.75-.844 1.168-1.266 2.852-1.266 5.047 0 2.2.422 3.883 1.266 5.047.851 1.168 2.07 1.75 3.656 1.75zm-4.922-15.016c1.02-1.352 2.149-2.352 3.39-3 1.239-.645 2.665-.969 4.282-.969 2.863 0 5.21 1.14 7.047 3.422 1.832 2.273 2.75 5.195 2.75 8.766 0 3.574-.918 6.496-2.75 8.765C23.867-.539 21.519.593 18.656.593c-1.617 0-3.043-.32-4.281-.953-1.242-.644-2.371-1.644-3.39-3V0H3.561v-32.234h7.422z" />
      </symbol>
      <symbol id="qh" overflow="visible">
        <path
          d="M.516-23.203h7.422l6.234 15.75 5.297-15.75h7.422L17.125 2.203c-.98 2.57-2.121 4.375-3.422 5.406C12.4 8.64 10.676 9.156 8.531 9.156h-4.28V4.281h2.312c1.257 0 2.175-.2 2.75-.594.57-.398 1.015-1.117 1.328-2.156l.218-.64z" />
      </symbol>
      <symbol id="qi" overflow="visible">
        <path
          d="M22.656-5.64H10.187L8.218 0H.203l11.453-30.922h9.515L32.624 0H24.61zm-10.469-5.735h8.469L16.42-23.672z" />
      </symbol>
      <symbol id="qj" overflow="visible">
        <path
          d="M26.891-14.125V0h-7.469v-10.812c0-2-.047-3.379-.14-4.14-.086-.758-.235-1.32-.454-1.688a3.132 3.132 0 0 0-1.187-1.125c-.492-.27-1.055-.406-1.688-.406-1.554 0-2.773.601-3.656 1.797-.875 1.199-1.312 2.855-1.312 4.968V0H3.563v-23.203h7.422v3.407c1.113-1.352 2.297-2.352 3.547-3 1.257-.645 2.648-.97 4.172-.97 2.675 0 4.707.825 6.093 2.47 1.395 1.648 2.094 4.039 2.094 7.172z" />
      </symbol>
      <symbol id="qk" overflow="visible">
        <path
          d="M3.563-23.203h7.421V-.422c0 3.113-.75 5.488-2.25 7.125C7.242 8.336 5.082 9.156 2.25 9.156h-3.656V4.281h1.281c1.406 0 2.367-.32 2.89-.953.532-.637.797-1.887.797-3.75zm0-9.031h7.421v6.047H3.563z" />
      </symbol>
      <symbol id="ql" overflow="visible">
        <path
          d="M21.688-22.469v5.625a28.676 28.676 0 0 0-4.594-1.484c-1.48-.332-2.875-.5-4.187-.5-1.406 0-2.453.18-3.14.53-.688.356-1.032.9-1.032 1.626 0 .594.258 1.055.781 1.375.52.312 1.445.543 2.781.687l1.313.188c3.8.492 6.351 1.289 7.656 2.39 1.313 1.106 1.969 2.84 1.969 5.204 0 2.468-.914 4.324-2.735 5.562-1.824 1.242-4.543 1.86-8.156 1.86-1.53 0-3.117-.122-4.75-.36A40.742 40.742 0 0 1 2.547-.844v-5.64A21.595 21.595 0 0 0 7.094-4.86a21.12 21.12 0 0 0 4.735.532c1.445 0 2.535-.196 3.265-.594.739-.406 1.11-1.004 1.11-1.797 0-.656-.258-1.145-.766-1.469-.5-.32-1.508-.578-3.016-.765l-1.296-.157c-3.305-.414-5.618-1.18-6.938-2.297-1.324-1.125-1.984-2.828-1.984-5.109 0-2.457.836-4.281 2.515-5.469 1.688-1.187 4.27-1.781 7.75-1.781 1.364 0 2.797.105 4.297.312 1.508.211 3.149.54 4.922.985z" />
      </symbol>
      <symbol id="qm" overflow="visible">
        <path d="M3.89-30.922h7.985v11.281l11.484-11.281h9.266L17.734-16.281 34.156 0H24.17L11.874-12.188V0H3.89z" />
      </symbol>
      <symbol id="qn" overflow="visible"><path d="M3.563-23.203h7.421V0H3.563zm0-9.031h7.421v6.047H3.563z" /></symbol>
      <symbol id="qo" overflow="visible">
        <path
          d="M25.062-19.344c.938-1.438 2.05-2.531 3.344-3.281 1.289-.758 2.71-1.14 4.265-1.14 2.657 0 4.68.823 6.078 2.468 1.395 1.648 2.094 4.04 2.094 7.172V0H33.39v-12.094c.008-.176.02-.363.031-.563.008-.195.016-.472.016-.828 0-1.644-.246-2.836-.734-3.578-.48-.738-1.262-1.11-2.344-1.11-1.406 0-2.496.587-3.266 1.75-.761 1.157-1.156 2.837-1.187 5.032V0h-7.453v-12.094c0-2.57-.227-4.227-.672-4.969-.438-.738-1.219-1.11-2.344-1.11-1.43 0-2.527.587-3.297 1.75-.773 1.169-1.156 2.84-1.156 5.016V0H3.515v-23.203h7.469v3.407c.906-1.313 1.945-2.301 3.125-2.97a7.876 7.876 0 0 1 3.906-1c1.602 0 3.02.391 4.25 1.173 1.227.773 2.16 1.855 2.797 3.25z" />
      </symbol>
      <symbol id="qp" overflow="visible">
        <path
          d="M18.828-32.234v4.875h-4.094c-1.055 0-1.789.195-2.203.578-.418.375-.625 1.031-.625 1.969v1.61h6.344v5.312h-6.344V0H4.5v-17.89H.812v-5.313H4.5v-1.61c0-2.53.703-4.397 2.11-5.608 1.405-1.207 3.585-1.813 6.546-1.813z" />
      </symbol>
      <symbol id="qq" overflow="visible">
        <path
          d="M26.891-14.125V0h-7.469v-10.766c0-2.031-.047-3.426-.14-4.188-.086-.757-.235-1.32-.454-1.687a3.132 3.132 0 0 0-1.187-1.125c-.492-.27-1.055-.406-1.688-.406-1.554 0-2.773.601-3.656 1.797-.875 1.199-1.312 2.855-1.312 4.968V0H3.563v-32.234h7.422v12.438c1.113-1.351 2.297-2.351 3.547-3 1.257-.644 2.648-.968 4.172-.968 2.675 0 4.707.824 6.093 2.469 1.395 1.648 2.094 4.039 2.094 7.171z" />
      </symbol>
      <symbol id="qr" overflow="visible">
        <path d="M3.89-30.922h8.907l11.25 21.203v-21.203h7.562V0h-8.906l-11.25-21.219V0H3.891z" />
      </symbol>
      <symbol id="qs" overflow="visible">
        <path
          d="M3.89-30.922h13.235c3.937 0 6.957.875 9.062 2.625 2.102 1.742 3.156 4.227 3.156 7.453 0 3.25-1.054 5.75-3.156 7.5-2.105 1.742-5.125 2.61-9.062 2.61h-5.25V-.002H3.89zm7.985 5.781v8.625h4.406c1.54 0 2.735-.375 3.578-1.125s1.266-1.816 1.266-3.203c0-1.375-.422-2.43-1.266-3.172-.843-.75-2.039-1.125-3.578-1.125z" />
      </symbol>
    </defs>
    <path
      d="M427.04 240.95c22.277 3.297 44.57 8.172 65.453 14.949 43.176 14.008 74.836 34.262 89.855 62.543 13.043 24.562 15.195 60.434 9.05 104.92-3.194 23.125-8.538 47.699-15.43 72.793a762.452 762.452 0 0 1-12.784 41.832 603.311 603.311 0 0 1-4.227 12.121 287.606 287.606 0 0 1-1.633 4.43 8.48 8.48 0 0 1-7.925 5.46h-254.55a8.476 8.476 0 0 1-6.653-3.218l-161.21-203.64a8.48 8.48 0 0 1-.543-9.762l6.442-10.309c22.707-36.332 67.254-42.21 98.539-13.012l63.426 59.2V50.896c0-28.138 22.789-50.903 50.918-50.903h8.469c28.12 0 50.918 22.816 50.918 50.957v187.3a437.22 437.22 0 0 1 21.883 2.7zM144.01 347.3l154.95 195.73h244.51a592.194 592.194 0 0 0 3.637-10.473 744.038 744.038 0 0 0 12.5-40.895c6.707-24.434 11.898-48.305 14.98-70.625 5.703-41.25 3.738-73.988-7.227-94.637-12.496-23.523-40.719-41.582-80.102-54.359-19.895-6.457-41.293-11.133-62.703-14.305a424.148 424.148 0 0 0-20.699-2.562c-3.715-.36-6.34-.567-7.691-.645a8.485 8.485 0 0 1-7.977-8.469V50.95c0-18.77-15.203-33.988-33.949-33.988h-8.469c-18.762 0-33.949 15.172-33.949 33.934v347.89c0 7.418-8.847 11.266-14.273 6.203l-77.699-72.523c-23.48-21.914-55.52-17.684-72.57 9.598zm34.926-247.48v8.523c0 11.516-10.934 17.125-20.348 10.402l-45.535-32.527c-8.633-6.164-8.57-17.586 0-23.707l45.535-32.523c9.488-6.78 20.348-1.203 20.348 10.398v8.524h59.395c9.402 0 16.969 7.594 16.969 17.05v16.81c0 9.386-7.629 17.05-16.969 17.05zm-16.973.48v-8.964c0-4.688 3.8-8.485 8.484-8.485h67.883c-.035 0-.035-5.633-.004-16.89 0-.067-22.625-.094-67.879-.083a8.485 8.485 0 0 1-8.484-8.484v-8.965l-36.309 25.938z"
      fill-rule="evenodd" />
  </symbol>
  <symbol viewBox="0 0 32 26" id="icon-twitter" xmlns="http://www.w3.org/2000/svg">
    <path
      d="M31 1.013a14.986 14.986 0 0 1-4.282 2.047 6.13 6.13 0 0 0-3.127-1.88 6.222 6.222 0 0 0-3.66.214 6.09 6.09 0 0 0-2.877 2.233A5.91 5.91 0 0 0 16 7.072V8.41a14.772 14.772 0 0 1-6.912-1.518 14.46 14.46 0 0 1-5.36-4.541s-5.455 12.038 6.818 17.388A16.1 16.1 0 0 1 1 22.414c12.273 6.687 27.273 0 27.273-15.382a5.896 5.896 0 0 0-.11-1.11A10.277 10.277 0 0 0 31 1.013Z" />
  </symbol>
  <symbol viewBox="0 0 24 20" id="icon-twitter-footer" xmlns="http://www.w3.org/2000/svg">
    <path
      d="M23 1.01a10.9 10.9 0 0 1-3.14 1.53 4.48 4.48 0 0 0-7.86 3v1a10.66 10.66 0 0 1-9-4.53s-4 9 5 13a11.64 11.64 0 0 1-7 2c9 5 20 0 20-11.5 0-.278-.028-.556-.08-.83A7.72 7.72 0 0 0 23 1.01Z" />
  </symbol>
</svg>
